<svg xmlns="http://www.w3.org/2000/svg" xmlns:xlink="http://www.w3.org/1999/xlink" viewBox="0 0 750 652"><defs><style>.cls-1,.cls-10,.cls-11,.cls-9{fill:none;}.cls-2{isolation:isolate;}.cls-3{fill:#f3f3f3;}.cls-4{clip-path:url(#clip-path);}.cls-5{fill:#d45a45;}.cls-12,.cls-5,.cls-6,.cls-7,.cls-8{mix-blend-mode:multiply;}.cls-12,.cls-5,.cls-7{opacity:0.8;}.cls-6,.cls-7{fill:#b7b7b7;}.cls-8{fill:#2c322d;}.cls-10,.cls-11,.cls-9{stroke:#ffa38c;stroke-linecap:round;stroke-linejoin:round;}.cls-10{stroke-dasharray:6.03 6.03;}.cls-11{stroke-dasharray:6 6;}.cls-13{fill:#ebcfc7;stroke:#ebcfc7;stroke-miterlimit:10;}</style><clipPath id="clip-path"><rect class="cls-1" width="750" height="652"/></clipPath></defs><g class="cls-2"><g id="BACKGROUND"><rect class="cls-3" width="750" height="652"/></g><g id="OBJECTS"><g class="cls-4"><path class="cls-5" d="M34.45,178.1c-24-17-16-41.69,2.06-65.73C46.19,99.47,59,96.49,68.76,96.49c11,0,21.3,4.05,28.13,11.34,18.52,19.79-4.92,49.4-4.92,49.4S58.46,195.1,34.45,178.1Zm45-19.84c10.85-14.39,14.6-36.85,1.31-45.76,0,0-23.54-18.17-42.41,8.47S29,165.33,35.81,171.4,68.56,172.63,79.42,158.26Z"/><path class="cls-5" d="M619.8,487.35c15.56-13,6.19-34.06-10.85-41s-43.71,9.56-40.35,29.4S599,504.78,619.8,487.35Z"/><path class="cls-6" d="M596.34,406.66c-8.8.23-10.9,11.43-7.44,17s14.88,6.91,18.07,0S606.7,406.4,596.34,406.66Z"/><path class="cls-7" d="M729.38,330.35c-19.81,4.35-37.32,23.25-39,45.47s0,46.9,22.64,64.23,34.86-16.51,43.63-20S783.41,415,794,405.39s22.64-36.7,14.68-51.79S780.56,319.14,729.38,330.35Z"/><path class="cls-5" d="M835.44,557.4s-68.52-40.79-120.36-43.25S577.83,551.2,569.37,585.4C560.3,622,922.65,666.54,835.44,557.4Z"/><path class="cls-8" d="M769.27,541.48c-2-.21-4.42-4.57-7.2-5.17s-12.59-3.77-16.8-4.32-10.51-2.73-14.1-3-10.9-2-13.92-.21-11.38,17.11-16,22.9-16.92,12.94-24.87,14-21.27.26-26.57.94c0,0-.87-12.74,3.75-22.74s14.83-14.6,22.18-15.27,18.41,3.46,22.18,2.92,9.56-1.67,11.69-2.58a35.63,35.63,0,0,0,4.52-2.72c1.11-.6-1.38-1.89-4.26-2.4s-9.15-5.27-12.14-5.89-23.08,1.1-31.34-1.61-26.6-10.9-30.42-19.41-3.19-15-3.19-15a53,53,0,0,1,27.15-.1c14.23,3.95,21.62,10.11,27.78,16.46s10.58,15.91,11.69,17.1,8.9,5.4,11.36,5.66,5.36-.53,7.24.9,6.52,2.84,12.38,3.76,22.48,2.65,23.85,2.33-2.86-3.38-10.78-12.23-19.17-21.27-24.75-28.79-7.12-12.77-10.08-14.46-8.87-4.47-13.17-4.3-19.62,6.13-31.7,2.09-26.18-14.13-31.08-19.42-10.9-16.25-10.9-16.25A76,76,0,0,1,645.88,436c11.9,2.94,28.28,7.11,34,10.33s7.88,7.3,11.06,11.33,4.93,5.91,7.26,6.92,10.6,6,9.94,4.43-8.28-10.73-13.21-16.95-13.09-18-17-21.36-7-8.74-16-11.53-10.24,1.56-20.43-.74-23.32-10.75-27.37-18.11-5.43-18.46-8.65-23.73c0,0,12.89.11,22.66,3.75s14.72,5.08,22.48,13.44,9.88,18.46,11.32,20.3,4.08,3.51,6.43,5.15,1.44-3.56.14-6.16a66.32,66.32,0,0,1-3.3-8.05c-.18-.79-14-12.72-17-21.67s-7.57-18.06-6.07-24.53a84.09,84.09,0,0,1,8.15-20.9c3.51-6.11,9.14-7.83,9.79-11.93,0,0,6.79,12.12,13,20s5.11,23.2,4.12,31.74-4.9,22-7.27,24.84.41,9.14,2.07,13.63,3.89,7.19,7.85,11.76,12.54,16.52,17.18,22.12,13.54,16.7,15.94,20.19,4.74,10.21,7.6,13.9,13.69,17.46,14.28,16.6-3.41-12.07-4.61-16.67-4.2-12.93-7-16S707.55,451.53,704,439.59s-1.34-25.74,2.84-35.32,13-17.15,13-17.15,15.57,24,15.83,33.26-2.63,20.85-1.47,23.9-.21,14.16-6.25,22.94c0,0,3.37,10.84,5,15.95s3.94,19.84,6.64,23.05,9.82,10.89,13.28,13.72,7.75,8,10.23,9.24,10.46,4.38,11.81,7S769.27,541.48,769.27,541.48Z"/><path class="cls-7" d="M123.24,155c-2.52-4.93-8.75-3.39-10.62-.08s.57,10.12,4.93,10.25S126.21,160.79,123.24,155Z"/><path class="cls-5" d="M83.77,18.33C65.39,25.74,35.15,43.52,35.53,69.56s14.77,32.36,32.33,36.79S127.54,119,145.25,95.8s19.65-52.9,13.86-64.88S127.7.62,83.77,18.33Z"/><path class="cls-6" d="M128.08,99c-11.19,5.13-10.84,16.85-4.77,22.72s20.23,7.53,25.71,1.1S141.45,92.91,128.08,99Z"/><path class="cls-8" d="M-12.06,63.61c-.42,1.15,6,.85,8.07,2.88s2.84,1.13,2.29,4.94-3.75,9.16-4.45,12.49-2.6,15-1.81,23.72,1.89,15.63,6.77,20.62S12.47,136.87,17,139.15a70.15,70.15,0,0,0-1.36-18c-2-9.33-2.48-15.34-6.68-22.69S-3.56,84.84-3.13,82.72,0,74,.18,72.1s-.78-4.56,1.53-2.92,8.06,5.8,9.72,8.34S14,85.75,15.18,88.77s10.76,13.1,15.42,17.36,9.75,17.3,18.63,22.91,18.83,9.15,27.24,9.72S98.64,134,98.64,134s-6.06-11.26-15.33-16.68-22.67-13-32.07-14.86S27.75,98.62,25.6,97.37s-7.21-6.64-8-8.4-1.93-9.14-2.68-10.71a23.23,23.23,0,0,0-5-5.52c-.81-.46,5.75,2.11,9,1.55a34.87,34.87,0,0,1,12.61.65c4.19,1,19.65,9.12,25.54,9.93s19,1.27,25.12-4.84,7.31-18.19,7.31-18.19S76.39,58,68.36,57.71s-21,2.27-27.62,5.9-12.55,7.38-15,7.82-7.62,1.34-9.4.86S4,68.21,1.47,66.65s-7.64-5-10-5.34S-12.06,63.61-12.06,63.61Z"/><path class="cls-9" d="M49.08,250.28c.54-.85,1.12-1.67,1.72-2.46"/><path class="cls-10" d="M54.77,243.28c11.21-11.1,28.23-15.56,43.85-12,18.57,4.19,34.68,18.6,43.73,36.41,4.7,9.25,7.69,20,5.52,30-.93,4.27-3.08,8.57-6.9,10.23s-9.33-.73-9.85-5.14a7.63,7.63,0,0,1,3-6.57c4.27-3.45,10.65-3,15.52-.1,9.12,5.37,14.74,16.88,18,26.87,6.67,20.53-.41,39.52-13,54.57-8.63,10.3-18.92,18.95-27.43,29.36S111.82,430.1,112,444.12c.13,11.91,6.61,24.44,16.6,29.67"/><path class="cls-9" d="M131.32,475a22,22,0,0,0,2.88.82"/><path class="cls-11" d="M763,104.4c-2.3,11.92-12.18,20.62-20.75,29.23a198.41,198.41,0,0,0-28.32,35.84c-7.84,12.69-14.36,26.7-15.16,41.6-1.71,31.71,22.4,58.91,48.09,77.56s55.28,33.5,74.15,59.05c8.83,11.95,15.1,26,26.21,35.9,5.65,5,12.69,8.85,20.24,9.2s15.53-3.33,18.88-10.1"/></g><g class="cls-12"><ellipse class="cls-13" cx="684.44" cy="60.74" rx="1.56" ry="1.56"/><ellipse class="cls-13" cx="684.44" cy="78.89" rx="1.56" ry="1.56"/><path class="cls-13" d="M684.44,98.6A1.57,1.57,0,1,1,686,97,1.56,1.56,0,0,1,684.44,98.6Z"/><ellipse class="cls-13" cx="684.44" cy="115.18" rx="1.56" ry="1.56"/><path class="cls-13" d="M684.44,134.89a1.56,1.56,0,1,1,1.56-1.56A1.56,1.56,0,0,1,684.44,134.89Z"/><ellipse class="cls-13" cx="667.74" cy="60.74" rx="1.56" ry="1.56"/><ellipse class="cls-13" cx="667.74" cy="78.89" rx="1.56" ry="1.56"/><path class="cls-13" d="M667.74,98.6A1.57,1.57,0,1,1,669.31,97,1.56,1.56,0,0,1,667.74,98.6Z"/><ellipse class="cls-13" cx="667.74" cy="115.18" rx="1.56" ry="1.56"/><path class="cls-13" d="M667.74,134.89a1.56,1.56,0,1,1,1.57-1.56A1.56,1.56,0,0,1,667.74,134.89Z"/><path class="cls-13" d="M651.05,62.3a1.56,1.56,0,1,1,1.57-1.56A1.56,1.56,0,0,1,651.05,62.3Z"/><path class="cls-13" d="M651.05,80.45a1.56,1.56,0,1,1,1.57-1.56A1.56,1.56,0,0,1,651.05,80.45Z"/><path class="cls-13" d="M651.05,98.6A1.57,1.57,0,1,1,652.62,97,1.56,1.56,0,0,1,651.05,98.6Z"/><path class="cls-13" d="M651.05,116.74a1.56,1.56,0,1,1,1.57-1.56A1.56,1.56,0,0,1,651.05,116.74Z"/><path class="cls-13" d="M651.05,134.89a1.56,1.56,0,1,1,1.57-1.56A1.56,1.56,0,0,1,651.05,134.89Z"/><ellipse class="cls-13" cx="634.36" cy="60.74" rx="1.56" ry="1.56"/><ellipse class="cls-13" cx="634.36" cy="78.89" rx="1.56" ry="1.56"/><path class="cls-13" d="M634.36,98.6A1.57,1.57,0,1,1,635.93,97,1.56,1.56,0,0,1,634.36,98.6Z"/><ellipse class="cls-13" cx="634.36" cy="115.18" rx="1.56" ry="1.56"/><path class="cls-13" d="M634.36,134.89a1.56,1.56,0,1,1,1.57-1.56A1.56,1.56,0,0,1,634.36,134.89Z"/><ellipse class="cls-13" cx="617.67" cy="60.74" rx="1.56" ry="1.56"/><ellipse class="cls-13" cx="617.67" cy="78.89" rx="1.56" ry="1.56"/><path class="cls-13" d="M617.67,98.6A1.57,1.57,0,1,1,619.24,97,1.56,1.56,0,0,1,617.67,98.6Z"/><ellipse class="cls-13" cx="617.67" cy="115.18" rx="1.56" ry="1.56"/><path class="cls-13" d="M617.67,134.89a1.56,1.56,0,1,1,1.57-1.56A1.56,1.56,0,0,1,617.67,134.89Z"/><ellipse class="cls-13" cx="600.98" cy="60.74" rx="1.56" ry="1.56"/><ellipse class="cls-13" cx="600.98" cy="78.89" rx="1.56" ry="1.56"/><path class="cls-13" d="M601,98.6A1.57,1.57,0,1,1,602.55,97,1.56,1.56,0,0,1,601,98.6Z"/><ellipse class="cls-13" cx="600.98" cy="115.18" rx="1.56" ry="1.56"/><path class="cls-13" d="M601,134.89a1.56,1.56,0,1,1,1.57-1.56A1.56,1.56,0,0,1,601,134.89Z"/></g></g></g></svg>